<svg width="200" height="200" viewBox="0 0 200 200" fill="none" xmlns="http://www.w3.org/2000/svg">
  <path
    d="M7.5 69.5C23.4 31.8 57.9 10 100 10C142.1 10 176.6 31.8 192.5 69.5C196.6 79.2 189.5 90 179 90H21C10.5 90 3.4 79.2 7.5 69.5Z"
    fill="#0F172A"
  />
  <path
    d="M28.9 124.4C42.1 108.3 68.7 98 100 98C131.3 98 157.9 108.3 171.1 124.4C178.9 133.9 172.2 148 160 148H40C27.8 148 21.1 133.9 28.9 124.4Z"
    fill="#0F172A"
  />
  <ellipse cx="100" cy="178" rx="38" ry="12" fill="#0F172A" />
</svg>
